# xmcd CD database file
#
# Track frame offsets:
#	150
#	27127
#	48793
#	63733
#	95557
#	110431
#	129976
#	148857
#	167959
#	176200
#
# Disc length: 2608 seconds
#
# Revision: 0
# Processed by: cddbd v1.5.2PL0 Copyright (c) Steve Scherf et al.
# Submitted via: CDex 1.51
#
DISCID=8e0a2e0a
DTITLE=Rob Susman - Tri Boro Trio
DYEAR=2006
DGENRE=Jazz
TTITLE0=Billy Dreams About the Stars
TTITLE1=It Don't Mean a Thing
TTITLE2=Running with Scissors
TTITLE3=In a Sentimental Mood
TTITLE4=Mambo for Magnolia
TTITLE5=For Tommy
TTITLE6=The Best Thing that Could Happen is Mandi
TTITLE7=Do You Know What it Means to Miss New Orleans
TTITLE8=Blues - a - Lodix
TTITLE9=Down by the Riverside
EXTD=YEAR: 2006
EXTT0=
EXTT1=
EXTT2=
EXTT3=
EXTT4=
EXTT5=
EXTT6=
EXTT7=
EXTT8=
EXTT9=
PLAYORDER=
